<?xml version="1.0" encoding="utf-8"?>
<!-- Generator: Adobe Illustrator 16.0.0, SVG Export Plug-In . SVG Version: 6.00 Build 0)  -->
<!DOCTYPE svg PUBLIC "-//W3C//DTD SVG 1.1//EN" "http://www.w3.org/Graphics/SVG/1.1/DTD/svg11.dtd">
<svg version="1.1" id="Layer_1" xmlns="http://www.w3.org/2000/svg" xmlns:xlink="http://www.w3.org/1999/xlink" x="0px" y="0px"
	 width="612px" height="792px" viewBox="0 0 612 792" enable-background="new 0 0 612 792" xml:space="preserve">
<g>
	<path fill="#A3E261" d="M601.806,287.777c0,0-85.195,169.229-258.527,70.912c0,0,58.86-58.859,152.142-74.298
		C527.208,279.11,562.991,278.896,601.806,287.777z"/>
	<path fill="#23B75F" d="M495.42,284.391c-93.281,15.438-152.142,74.298-152.142,74.298s58.86-58.859,74.299-152.142
		c30.125-13.285,63.455-20.667,98.51-20.667C516.087,220.937,508.705,254.266,495.42,284.391z"/>
	<path fill="#A3E261" d="M417.578,206.542c-15.439,93.291-74.302,152.152-74.302,152.152
		c-97.733-172.305,68.87-257.498,70.902-258.512l0.013-0.013C423.076,138.985,422.86,174.768,417.578,206.542z"/>
	<path fill="#F94848" d="M343.282,358.689c0,0,98.015,54.957,66.749,194.326C379.819,687.679,68.323,715.234,27.53,674.441
		c-40.793-40.794-13.238-352.291,121.427-382.501C288.324,260.674,343.282,358.689,343.282,358.689z"/>
	<path fill="#DD2C2C" d="M148.956,291.943C15.324,321.922-12.827,628.865,26.598,673.443c0.302,0.346,0.612,0.679,0.932,0.998
		c14.648,14.648,64.213,20.483,123.123,15.708c-24.114-2.499-42.107-7.826-49.989-15.708
		c-20.642-20.643-23.78-110.601-4.397-198.352c31.836-53.446,71.606-102.185,113.756-123.08
		c69.702-34.562,103.985-24.748,120.098-11.914C306.541,314.452,249.899,269.295,148.956,291.943z"/>
	<path fill="#93CC52" d="M343.275,358.694c-97.732-172.305,68.871-257.498,70.903-258.512
		C412.919,102.308,323.907,253.864,343.275,358.694z"/>
	<g>
		<circle fill="#DD2C2C" cx="286.712" cy="477.25" r="25.237"/>
		<circle fill="#DD2C2C" cx="249.466" cy="573.1" r="25.237"/>
		<circle fill="#DD2C2C" cx="94.634" cy="550.752" r="25.237"/>
		<circle fill="#DD2C2C" cx="188.085" cy="516.215" r="25.237"/>
		<circle fill="#DD2C2C" cx="352.631" cy="534.5" r="25.236"/>
		<circle fill="#DD2C2C" cx="131.201" cy="453.237" r="25.237"/>
		<circle fill="#DD2C2C" cx="228.066" cy="410.722" r="25.237"/>
		<circle fill="#DD2C2C" cx="155.581" cy="611.7" r="25.236"/>
	</g>
	<path d="M268.004,656.982c-45.17,14.579-98.803,23.526-147.146,24.548c-35.038,0.736-75.259-3.385-86.145-14.27
		c-17.565-17.565-22.757-120.132,6.339-220.424c13.939-48.045,46.782-130.771,110.13-144.984c5.475-1.229,8.916-6.661,7.687-12.133
		c-1.229-5.475-6.665-8.918-12.134-7.687c-29.722,6.667-56.194,25.964-78.677,57.355c-18.945,26.449-34.595,60.696-46.517,101.791
		c-13.3,45.837-21.135,98.886-21.498,145.54c-0.215,27.647,2.137,76.738,20.304,94.906C34.02,695.298,68.795,702,112.059,702
		c49.262,0,109.531-8.691,162.185-25.686c5.339-1.723,8.271-7.448,6.547-12.788C279.068,658.188,273.344,655.255,268.004,656.982z"
		/>
	<path d="M611.003,283.447c-1.329-2.824-3.885-4.882-6.928-5.578c-81.762-18.686-150.206,2.265-193.227,23.132
		c-7.545,3.66-14.57,7.43-21.063,11.185c3.754-6.494,7.524-13.518,11.186-21.064c9.925-20.462,19.861-46.688,25.551-77.351
		c25.214-10.453,51.782-16.327,79.184-17.51c-0.786,17.955-3.606,35.703-8.418,52.891c-1.512,5.403,1.643,11.008,7.044,12.52
		c0.917,0.256,1.836,0.377,2.742,0.377c4.44,0,8.521-2.937,9.777-7.423c6.235-22.277,9.396-45.407,9.396-68.747
		c0-5.609-4.547-10.158-10.158-10.158c-29.742,0-58.67,5.049-86.237,14.994c2.902-28.161,1.896-59.376-5.749-92.823
		c-0.695-3.043-2.751-5.598-5.577-6.928c-2.822-1.327-6.103-1.285-8.892,0.118c-0.476,0.238-11.784,5.975-26.896,17.311
		c-4.487,3.367-5.396,9.734-2.028,14.221c3.364,4.487,9.732,5.398,14.221,2.031c4.504-3.379,8.637-6.21,12.152-8.486
		c9.905,56.11,1.834,111.696-24.066,165.421c-13.235,27.459-28.27,47.924-37.673,59.401
		c-27.179-54.298-41.049-128.553,25.938-195.825c3.959-3.976,3.945-10.407-0.03-14.365c-3.978-3.959-10.409-3.946-14.365,0.03
		c-26.89,27.004-44.052,57.483-51.008,90.591c-5.942,28.278-4.211,57.917,5.091,88.572c-24.934-18.294-66.938-38.495-127.553-33.613
		c-5.59,0.449-9.76,5.349-9.31,10.94c0.449,5.591,5.343,9.759,10.94,9.311c44.139-3.554,82.637,6.577,114.417,30.113
		c23.867,17.678,34.867,36.753,34.96,36.918c0.904,1.614,2.259,2.963,3.866,3.877c0.231,0.132,23.212,13.403,42.161,42.482
		c25.299,38.821,31.916,86.184,19.669,140.772c-10.786,48.081-61.449,78.289-102.053,95.163c-5.18,2.154-7.634,8.099-5.481,13.279
		c1.625,3.906,5.403,6.262,9.384,6.262c1.299,0,2.622-0.251,3.895-0.78c64.587-26.843,104.035-64.7,114.08-109.478
		c16.933-75.479-3.208-127.174-23.087-157.25c-1.599-2.418-3.218-4.731-4.851-6.953c18.721,5.687,37.05,8.547,54.922,8.547
		c16.128,0,31.892-2.321,47.229-6.969c77.292-23.42,115.153-97.146,116.729-100.271
		C612.289,289.551,612.332,286.272,611.003,283.447z M488.096,373.22c-39.097,11.794-81.81,6.208-127.139-16.588
		c11.344-9.308,31.52-24.139,58.757-37.35c37.64-18.257,96.138-36.592,166.048-24.385
		C572.318,315.541,539.55,357.699,488.096,373.22z"/>
	<path d="M171.611,330.011l-16.07,16.068c-3.967,3.967-3.967,10.398,0,14.365c1.983,1.984,4.583,2.975,7.183,2.975
		c2.599,0,5.2-0.991,7.183-2.975l16.07-16.068c3.967-3.967,3.967-10.398,0-14.365C182.01,326.044,175.578,326.044,171.611,330.011z"
		/>
	<path d="M233.605,392.006l-16.07,16.069c-3.967,3.968-3.967,10.399,0,14.365c1.983,1.983,4.583,2.976,7.183,2.976
		c2.6,0,5.2-0.991,7.183-2.976l16.07-16.069c3.967-3.967,3.967-10.399,0-14.365C244.005,388.039,237.573,388.039,233.605,392.006z"
		/>
	<path d="M355.891,546.431l16.069-16.07c3.969-3.967,3.969-10.397,0.002-14.365c-3.968-3.967-10.399-3.967-14.366,0l-16.069,16.07
		c-3.969,3.967-3.969,10.397-0.001,14.365c1.984,1.984,4.583,2.975,7.184,2.975C351.308,549.406,353.907,548.413,355.891,546.431z"
		/>
	<path d="M309.966,468.366c3.967-3.968,3.967-10.399,0-14.365c-3.969-3.969-10.399-3.968-14.366,0l-16.068,16.069
		c-3.967,3.968-3.967,10.399,0,14.365c1.983,1.984,4.583,2.976,7.183,2.976c2.6,0,5.2-0.991,7.183-2.976L309.966,468.366z"/>
	<path d="M147.874,430.106c-3.967-3.968-10.399-3.968-14.365,0l-16.069,16.069c-3.967,3.968-3.967,10.399,0,14.365
		c1.983,1.983,4.583,2.976,7.183,2.976c2.599,0,5.199-0.991,7.183-2.976l16.069-16.069
		C151.841,440.504,151.841,434.072,147.874,430.106z"/>
	<path d="M241.431,584.531c1.983,1.984,4.583,2.975,7.183,2.975s5.2-0.99,7.183-2.975l16.068-16.07
		c3.967-3.967,3.967-10.399,0-14.365c-3.967-3.968-10.399-3.967-14.365,0l-16.068,16.07
		C237.464,574.133,237.464,580.566,241.431,584.531z"/>
	<path d="M179.435,522.536c1.983,1.983,4.583,2.976,7.183,2.976c2.599,0,5.2-0.991,7.183-2.976l16.07-16.069
		c3.967-3.968,3.967-10.399,0-14.365c-3.967-3.968-10.399-3.968-14.365,0l-16.07,16.069
		C175.468,512.137,175.468,518.57,179.435,522.536z"/>
	<path d="M148.516,625.607c2.599,0,5.2-0.99,7.183-2.975l16.07-16.07c3.967-3.967,3.967-10.398,0-14.365s-10.399-3.967-14.365,0
		l-16.07,16.07c-3.967,3.967-3.967,10.399,0,14.365C143.318,624.615,145.917,625.607,148.516,625.607z"/>
	<path d="M95.409,530.203l-16.07,16.069c-3.967,3.968-3.967,10.399,0,14.365c1.983,1.983,4.583,2.976,7.183,2.976
		c2.599,0,5.199-0.991,7.183-2.976l16.07-16.069c3.967-3.968,3.967-10.399,0-14.365C105.808,526.235,99.375,526.235,95.409,530.203z
		"/>
</g>
</svg>
