<?xml version="1.0" encoding="utf-8"?>
<!-- Generator: Adobe Illustrator 16.0.0, SVG Export Plug-In . SVG Version: 6.00 Build 0)  -->
<!DOCTYPE svg PUBLIC "-//W3C//DTD SVG 1.1//EN" "http://www.w3.org/Graphics/SVG/1.1/DTD/svg11.dtd">
<svg version="1.1" id="Layer_1" xmlns="http://www.w3.org/2000/svg" xmlns:xlink="http://www.w3.org/1999/xlink" x="0px" y="0px"
	 width="612px" height="792px" viewBox="0 0 612 792" enable-background="new 0 0 612 792" xml:space="preserve">
<g>
	<path fill="#E6E7E4" d="M318.301,394.067l-6.835-104.421c-3.449-34.488-32.187-60.496-66.848-60.496H151.39
		c-35.877,0-65.066-29.188-65.066-65.066c0-35.877,29.189-65.065,65.066-65.065c35.662,0,64.716,28.839,65.063,64.421h89.384
		c19.738,0,38.515,8.517,51.517,23.369c13.001,14.849,18.962,34.587,16.354,54.152l-15.604,153.106H318.301z"/>
	<path fill="#CED0CD" d="M129.776,206.746c0-35.877,29.188-65.065,65.065-65.065c6.45,0,12.678,0.956,18.564,2.711
		c-8.363-26.281-33.001-45.373-62.018-45.373c-35.877,0-65.065,29.188-65.065,65.066c0,29.428,19.646,54.345,46.507,62.354
		C130.852,220.223,129.776,213.608,129.776,206.746z"/>
	<path fill="#B72C11" d="M453.38,411.692l-11.632-2.587H412.45v48.533l25.554,1.821l8.218,2.226
		c32.368,8.76,54.976,34.731,54.976,63.158c0,16.676-7.451,32.629-20.98,44.915c-11.771,10.689-26.955,17.72-43.913,20.328
		l-8.104,1.246h-29.114v50.625h25.352l12.256-1.271c31.031-3.218,59.838-16.64,81.114-37.797c21.694-21.57,33.64-49.29,33.64-78.048
		C551.443,471.061,511.119,424.531,453.38,411.692z"/>
	<path fill="#CD5838" d="M108.066,692.981c-13.479,0-24.821-10.531-25.82-23.971L60.612,378.071
		c-0.415-5.577,1.453-10.909,5.258-15.008c3.808-4.102,8.986-6.359,14.582-6.359h345.056c5.594,0,10.771,2.257,14.577,6.356
		c3.809,4.104,5.676,9.434,5.261,15.015L424.901,653.04l-1.187,15.972c-1,13.441-12.341,23.97-25.82,23.97H108.066L108.066,692.981z
		"/>
	<path fill="#B72C11" d="M148.794,669.527L127.16,376.441c-0.415-5.619,1.452-10.988,5.258-15.119
		c1.833-1.989,3.99-3.537,6.352-4.618H80.451c-5.594,0-10.771,2.257-14.582,6.359c-3.205,3.454-5.015,7.78-5.264,12.391
		c0.006,0.098,0,0.195,0.006,0.294l21.634,293.086c1,13.54,12.34,24.147,25.82,24.147h60.757
		C158.021,690.454,149.646,681.067,148.794,669.527z"/>
	<path d="M526.59,442.517c-19.39-20.256-45.411-34.304-74.003-40.173l1.755-23.602c0.594-7.992-2.191-15.944-7.644-21.817
		c-5.452-5.874-13.177-9.242-21.189-9.242h-56.936l14.071-105.532c2.954-22.142-3.793-44.479-18.507-61.285
		c-14.715-16.807-35.965-26.446-58.303-26.446h-81.012C220.069,118.122,188.961,90,151.389,90
		c-40.851,0-74.084,33.233-74.084,74.084s33.233,74.084,74.084,74.084h93.229c30.008,0,54.888,22.516,57.874,52.374l5.713,57.142
		H80.451c-8.015,0-15.736,3.369-21.189,9.242c-5.453,5.873-8.239,13.824-7.644,21.817L73.251,669.68
		c1.347,18.122,16.64,32.32,34.815,32.32h289.828c18.175,0,33.466-14.198,34.814-32.321l1.466-19.706
		c32.766-2.59,63.204-15.545,86.484-36.982c25.669-23.64,39.806-54.945,39.806-88.147
		C560.462,494.57,548.434,465.334,526.59,442.517z M447.447,471.46c26.453,8.491,44.729,29.687,44.729,53.382
		c0,26.289-22.445,49.091-52.827,55.505L447.447,471.46z M244.617,218.842h-93.229c-30.193,0-54.758-24.564-54.758-54.759
		s24.565-54.758,54.758-54.758c30.194,0,54.758,24.563,54.758,54.758c0,5.338,4.327,9.663,9.663,9.663h90.025
		c16.767,0,32.717,7.234,43.762,19.849c11.045,12.616,16.108,29.382,13.892,46l-14.41,108.087h-21.447l-5.906-59.064
		C317.744,248.84,284.597,218.842,244.617,218.842z M435.067,377.309l-2.401,32.3v0.002l-3.644,48.999v0.001l-9.834,132.245
		l-3.657,49.188l-0.297,3.976h-70.583c-5.337,0-9.663,4.324-9.663,9.663c0,5.338,4.327,9.662,9.663,9.662h69.146l-0.364,4.898
		c-0.602,8.09-7.428,14.428-15.542,14.428H108.066c-8.113,0-14.939-6.338-15.542-14.428l-0.365-4.898h200.955
		c5.337,0,9.663-4.324,9.663-9.662c0-5.339-4.327-9.663-9.663-9.663H90.723L70.891,377.308c-0.2-2.689,0.699-5.257,2.534-7.233
		c1.835-1.975,4.33-3.063,7.026-3.063h238.395c0.01,0,0.019,0.001,0.027,0.001c0.008,0,0.018-0.001,0.024-0.001h38.633
		c0.006,0,0.013,0.001,0.019,0.001c0.01,0,0.019-0.001,0.027-0.001h67.933c2.696,0,5.191,1.089,7.025,3.063
		C434.368,372.051,435.267,374.618,435.067,377.309z M435.626,630.435l2.243-30.16c18.779-2.89,36.039-10.863,49.277-22.887
		c15.707-14.265,24.357-32.929,24.357-52.546c0-33.541-25.846-63.164-62.589-73.108l2.229-29.981
		c52.724,11.725,89.994,53.7,89.994,103.09C541.136,578.813,494.705,624.31,435.626,630.435z"/>
</g>
</svg>
