<?xml version="1.0" encoding="utf-8"?>
<!-- Generator: Adobe Illustrator 16.0.0, SVG Export Plug-In . SVG Version: 6.00 Build 0)  -->
<!DOCTYPE svg PUBLIC "-//W3C//DTD SVG 1.1//EN" "http://www.w3.org/Graphics/SVG/1.1/DTD/svg11.dtd">
<svg version="1.1" id="Layer_1" xmlns="http://www.w3.org/2000/svg" xmlns:xlink="http://www.w3.org/1999/xlink" x="0px" y="0px"
	 width="792px" height="1224px" viewBox="0 0 792 1224" enable-background="new 0 0 792 1224" xml:space="preserve">
<g>
	<path fill="#E6E6E6" d="M778.86,555.344c0,211.453-171.416,382.869-382.868,382.869S13.128,766.795,13.128,555.344"/>
	<path fill="#CCCCCC" d="M144.686,555.344H13.128c0,211.453,171.416,382.865,382.866,382.865c22.431,0,44.406-1.949,65.777-5.648
		C281.668,901.372,144.686,744.363,144.686,555.344z"/>
	<path fill="#4CA1E0" d="M682.591,454.063l-11.311,16.318c-2.486-8.929-6.024-17.438-10.47-25.353
		C668.375,447.918,675.641,450.946,682.591,454.063z"/>
	<g>
		<path fill="#B3B3B3" d="M778.868,555.347c0,0.561,0,1.104-0.017,1.663c-0.474,17.228-8.071,33.773-21.711,49.18l-31.042-128.266
			C759.627,500.617,778.868,527.09,778.868,555.347z"/>
		<path fill="#B3B3B3" d="M93.107,584.727c-14.794,9.735-24.564,26.49-24.564,45.539c0,1.471,0.052,2.94,0.175,4.378
			c-35.28-23.11-55.589-50.249-55.589-79.295c0-29.677,21.22-57.374,57.935-80.818c-3.519,11.101-5.428,22.919-5.428,35.191
			C65.637,538.312,75.966,564.505,93.107,584.727z"/>
	</g>
	<path fill="#F94848" d="M726.099,477.927l31.042,128.267c-4.657,5.27-10.031,10.399-16.055,15.39l-93.021-117.742l23.216-33.458
		l11.311-16.317h0.017l27.96-40.305L726.099,477.927z"/>
	<path fill="#F97D7D" d="M648.064,503.839l93.021,117.742c-35.718,29.572-94.632,53.838-167.326,69.07l40.672-229.375
		L648.064,503.839z"/>
	<path fill="#FFD41D" d="M671.28,470.38l-23.216,33.458l-33.634-42.562l-87.016,141.028c-1.505-2.469-3.325-4.779-5.462-6.916
		c-14.251-14.234-37.048-14.672-51.823-1.33l-0.945-1.349c2.083-1.4,4.045-2.993,5.883-4.833c14.706-14.688,14.706-38.535,0-53.225
		c-14.706-14.706-38.536-14.706-53.242,0c6.356-6.356,9.962-14.426,10.82-22.708c38.431-22.235,60.455-63.117,60.053-105.434
		c18.874-13.254,41.862-21.027,66.654-21.027c43.596,0,81.588,24.021,101.46,59.546C665.258,452.942,668.794,461.451,671.28,470.38z
		"/>
	<path fill="#E2BA14" d="M502.381,501.683c0-53.939,36.757-99.282,86.585-112.378c-9.456-2.486-19.378-3.822-29.615-3.822
		c-64.177,0-116.2,52.023-116.2,116.2s52.024,116.2,116.2,116.2c10.237,0,20.159-1.337,29.615-3.822
		C539.138,600.963,502.381,555.622,502.381,501.683z"/>
	<path fill="#F94848" d="M614.432,461.276L573.76,690.651c-23.706,4.972-48.9,8.964-75.216,11.87
		c4.534-13.165,1.524-28.345-8.98-38.851c-3.223-3.204-6.864-5.726-10.769-7.529l0.123-0.244
		c14.023,6.811,31.392,4.378,43.035-7.266c12.571-12.571,14.393-31.813,5.462-46.326L614.432,461.276z"/>
	<g>
		<path fill="#4CA1E0" d="M527.415,602.304c8.929,14.515,7.108,33.757-5.462,46.326c-11.644,11.644-29.012,14.077-43.035,7.266
			c-3.694-1.785-7.145-4.201-10.189-7.266c-14.707-14.706-14.707-38.535,0-53.242c0.454-0.454,0.928-0.911,1.399-1.33
			c14.777-13.342,37.572-12.904,51.824,1.33C524.09,597.524,525.91,599.837,527.415,602.304z"/>
		<path fill="#4CA1E0" d="M489.563,663.671c10.505,10.505,13.517,25.684,8.98,38.851c-22.287,2.47-45.381,4.149-69.087,4.972
			c-7.282-14.164-4.99-31.952,6.864-43.822c1.208-1.209,2.469-2.294,3.782-3.31c11.239-8.596,26.227-9.997,38.693-4.22
			C482.699,657.945,486.341,660.467,489.563,663.671z"/>
	</g>
	<path fill="#A3E261" d="M492.697,406.511c0.402,42.318-21.622,83.199-60.053,105.434c1.138-10.89-2.469-22.182-10.821-30.533
		c-1.803-1.804-3.746-3.379-5.777-4.745c1.891-7.248,2.89-14.863,2.89-22.69c0-29.764-14.462-56.166-36.749-72.537
		c9.576-15.005,22.586-28.013,38.57-37.766c3.344-2.048,6.811-3.957,10.416-5.689l33.354-16.125l16.124,33.335
		C488.652,371.757,492.557,389.248,492.697,406.511z"/>
	<path fill="#368CC1" d="M478.918,655.897l-0.123,0.244c-12.466-5.777-27.452-4.378-38.693,4.22l-0.297-0.385
		c0.98-0.806,1.942-1.682,2.854-2.591c14.707-14.706,14.707-38.536,0-53.242c-3.222-3.204-6.863-5.726-10.768-7.528l0.612-1.244
		c11.73,5.48,25.685,4.587,36.68-2.661l0.945,1.35c-0.474,0.421-0.945,0.875-1.399,1.33c-14.707,14.706-14.707,38.536,0,53.242
		C471.774,651.696,475.224,654.112,478.918,655.897z"/>
	<g>
		<path fill="#4CA1E0" d="M475.065,534.653c14.706,14.688,14.706,38.535,0,53.225c-1.837,1.838-3.799,3.431-5.883,4.832
			c-10.995,7.249-24.949,8.142-36.68,2.661c-3.868-1.804-7.493-4.307-10.68-7.493c-14.688-14.689-14.688-38.536,0-53.225
			C436.53,519.946,460.359,519.946,475.065,534.653z"/>
		<path fill="#4CA1E0" d="M442.658,604.144c14.707,14.706,14.707,38.536,0,53.242c-0.911,0.911-1.873,1.785-2.854,2.591
			c-14.777,12.062-36.574,11.205-50.371-2.591c-14.706-14.706-14.706-38.536,0-53.242c11.485-11.469,28.538-13.988,42.457-7.529
			C435.795,598.418,439.437,600.939,442.658,604.144z"/>
	</g>
	<path fill="#368CC1" d="M439.805,659.977l0.297,0.385c-1.313,1.016-2.574,2.101-3.782,3.31
		c-11.854,11.87-14.146,29.658-6.863,43.822c-11.031,0.386-22.183,0.579-33.458,0.579c-7.091,0-14.129-0.069-21.114-0.228v-94.668
		c5.322-1.784,10.312-4.797,14.55-9.033c-14.706,14.706-14.706,38.536,0,53.242C403.23,671.182,425.027,672.041,439.805,659.977z"/>
	<path fill="#4CA1E0" d="M421.823,481.411c8.352,8.352,11.958,19.644,10.821,30.533c-0.859,8.282-4.465,16.353-10.821,22.709
		c-11.502,11.502-28.607,14.007-42.562,7.476c-3.852-1.785-7.476-4.289-10.662-7.476c-14.706-14.707-14.706-38.536,0-53.242
		c12.904-12.904,32.828-14.479,47.447-4.745C418.077,478.031,420.02,479.607,421.823,481.411z"/>
	<g>
		<path fill="#368CC1" d="M461.673,663.671c-11.538,11.538-14.024,28.679-7.459,42.632c-8.177,0.507-16.423,0.893-24.757,1.19
			h-0.017c-7.282-14.164-4.99-31.952,6.881-43.822c10.627-10.628,26-13.551,39.271-8.824
			C470.514,656.668,465.733,659.61,461.673,663.671z"/>
		<path fill="#368CC1" d="M506.137,654.777c-3.852-1.785-7.477-4.289-10.663-7.476c-14.706-14.706-14.706-38.536,0-53.242
			c4.071-4.071,8.842-7.009,13.922-8.823c-13.265-4.727-28.644-1.801-39.269,8.823c-14.707,14.706-14.707,38.535,0,53.242
			c3.187,3.187,6.811,5.689,10.662,7.476c9.017,4.22,19.341,4.644,28.628,1.329C508.312,655.71,507.212,655.278,506.137,654.777z"/>
		<path fill="#368CC1" d="M425.44,664.861c-3.852-1.785-7.477-4.289-10.663-7.476c-14.706-14.706-14.706-38.536,0-53.242
			c4.071-4.071,8.842-7.009,13.922-8.823c-13.265-4.726-28.644-1.801-39.269,8.823c-14.706,14.706-14.706,38.536,0,53.242
			c3.187,3.187,6.811,5.689,10.662,7.476c9.017,4.22,19.341,4.644,28.628,1.329C427.615,665.794,426.516,665.364,425.44,664.861z"/>
		<path fill="#368CC1" d="M457.83,595.371c-3.852-1.785-7.476-4.289-10.662-7.477c-14.706-14.706-14.706-38.535,0-53.242
			c4.071-4.071,8.842-7.009,13.922-8.823c-13.265-4.726-28.644-1.8-39.27,8.823c-14.706,14.707-14.706,38.536,0,53.242
			c3.187,3.187,6.812,5.689,10.663,7.477c9.017,4.22,19.341,4.644,28.628,1.329C460.005,596.306,458.905,595.874,457.83,595.371z"/>
		<path fill="#368CC1" d="M404.605,542.129c-3.852-1.785-7.477-4.289-10.663-7.476c-14.706-14.707-14.706-38.536,0-53.242
			c4.071-4.071,8.842-7.009,13.922-8.823c-13.265-4.727-28.644-1.801-39.269,8.823c-14.706,14.706-14.706,38.535,0,53.242
			c3.187,3.187,6.811,5.688,10.662,7.476c9.018,4.22,19.341,4.644,28.629,1.329C406.78,543.062,405.681,542.632,404.605,542.129z"/>
		<path fill="#368CC1" d="M432.503,595.371l-0.612,1.243c-13.919-6.459-30.972-3.939-42.457,7.529
			c14.689-14.689,14.689-38.518,0-53.226c-3.223-3.222-6.863-5.725-10.768-7.545l0.595-1.244
			c13.955,6.531,31.061,4.026,42.562-7.477c-14.688,14.689-14.688,38.536,0,53.226C425.01,591.064,428.635,593.569,432.503,595.371z
			"/>
	</g>
	<path fill="#FFD41D" d="M418.934,453.976c0,7.825-0.997,15.442-2.889,22.69c-14.62-9.734-34.544-8.158-47.448,4.745
		c-14.706,14.706-14.706,38.535,0,53.242c3.187,3.187,6.812,5.688,10.663,7.476l-0.596,1.244c-13.936-6.46-30.99-3.94-42.475,7.545
		c14.707-14.706,14.707-38.535,0-53.242c-10.802-10.802-26.56-13.655-39.971-8.562c-5.533-30.866-23.251-57.515-47.99-74.761
		c12.431-25.335,36.452-43.962,65.149-48.988c5.076-0.893,10.294-1.349,15.617-1.349c19.89,0,38.29,6.459,53.189,17.421
		C404.473,397.81,418.934,424.212,418.934,453.976z"/>
	<path fill="#93CC52" d="M420.756,343.673c-15.985,9.751-28.993,22.761-38.569,37.766c-14.899-10.959-33.302-17.421-53.189-17.421
		c-5.323,0-10.541,0.455-15.617,1.349c1.662-16.23,6.688-32.373,15.32-47.447l18.436-32.127l32.127,18.419
		C396.664,314.19,410.635,327.864,420.756,343.673z"/>
	<path fill="#368CC1" d="M389.434,550.918c14.689,14.707,14.689,38.536,0,53.226c-4.237,4.236-9.228,7.249-14.55,9.033v-21.395
		c0-14.531-18.61-26.998-45.102-32.302c1.663-3.064,3.8-5.952,6.409-8.562c11.485-11.485,28.538-14.007,42.475-7.545
		C382.57,545.193,386.211,547.696,389.434,550.918z"/>
	<g>
		<path fill="#FCE275" d="M374.884,591.782v116.062c-34.264-0.734-67.338-3.274-98.625-7.406
			c-16.685-2.171-32.863-4.815-48.445-7.861V591.782c0,15.144,20.187,28.048,48.445,32.934c7.826,1.349,16.283,2.083,25.089,2.083
			C341.969,626.799,374.884,611.129,374.884,591.782z"/>
		<path fill="#FCE275" d="M329.782,559.48c26.491,5.304,45.102,17.771,45.102,32.302c0,19.347-32.916,35.017-73.534,35.017
			c-40.601,0-73.534-15.67-73.534-35.017c0-17.141,25.878-31.409,60.036-34.421c1.067-0.105,2.153-0.192,3.256-0.244h0.017
			c3.344-0.228,6.758-0.35,10.225-0.35c8.282,0,16.247,0.647,23.688,1.873h0.018C326.666,558.885,328.242,559.165,329.782,559.48z"
			/>
	</g>
	<path fill="#4CA1E0" d="M336.191,497.676c14.706,14.707,14.706,38.536,0,53.242c-3.326,3.326-7.091,5.9-11.136,7.721h-0.018
		c-7.44-1.225-15.406-1.873-23.688-1.873c-3.467,0-6.881,0.122-10.225,0.35h-0.017c-0.858-0.474-1.663-0.98-2.486-1.541
		c-1.995-1.33-3.887-2.89-5.655-4.657c-8.667-8.667-12.22-20.485-10.68-31.761c1.067-7.845,4.639-15.442,10.68-21.483
		c3.887-3.887,8.421-6.758,13.253-8.562C309.632,484.019,325.388,486.873,336.191,497.676z"/>
	<path fill="#FFA91F" d="M272.287,519.158c-1.541,11.274,2.014,23.093,10.68,31.76c1.768,1.769,3.66,3.326,5.655,4.658
		c-0.244,0.596-0.507,1.19-0.77,1.785c-34.158,3.012-60.036,17.28-60.036,34.421v24.651c-14.094,6.093-29.642,9.472-45.977,9.472
		c-1.505,0-3.012-0.036-4.5-0.105c-2.275-28.013-25.72-50.021-54.311-50.021c-11.048,0-21.326,3.292-29.921,8.947
		c-17.141-20.223-27.471-46.414-27.471-75.006c0-12.272,1.909-24.091,5.428-35.191c14.9-46.974,58.862-81.01,110.774-81.01
		c24.669,0,47.57,7.703,66.391,20.835c24.739,17.246,42.457,43.893,47.99,74.761c-4.832,1.804-9.366,4.675-13.253,8.562
		C276.926,503.717,273.354,511.315,272.287,519.158z"/>
	<g>
		<path fill="#368CC1" d="M318.973,558.395c-3.852-1.785-7.476-4.29-10.662-7.477c-14.707-14.706-14.707-38.535,0-53.242
			c4.071-4.071,8.842-7.009,13.922-8.823c-13.265-4.726-28.644-1.8-39.269,8.823c-14.707,14.707-14.707,38.536,0,53.242
			c3.187,3.187,6.811,5.689,10.663,7.477c9.017,4.22,19.341,4.644,28.628,1.328C321.148,559.327,320.048,558.897,318.973,558.395z"
			/>
		<path fill="#368CC1" d="M227.815,616.434v76.144c-25.947-5.06-50.23-11.259-72.467-18.436
			c13.447-9.928,22.165-25.878,22.165-43.876c0-1.505-0.052-2.993-0.175-4.465c1.488,0.07,2.994,0.105,4.5,0.105
			C198.174,625.906,213.72,622.526,227.815,616.434z"/>
	</g>
	<path fill="#E2901A" d="M124.869,509.721c0-53.94,36.757-99.282,86.585-112.378c-9.456-2.486-19.378-3.823-29.615-3.823
		c-64.177,0-116.2,52.023-116.2,116.201c0,64.177,52.023,116.199,116.2,116.199c10.237,0,20.159-1.336,29.615-3.822
		C161.626,609.001,124.869,563.658,124.869,509.721z"/>
	<path fill="#F94848" d="M177.339,625.801c0.123,1.472,0.175,2.96,0.175,4.465c0,17.998-8.72,33.948-22.165,43.876
		c-34.247-11.048-63.625-24.424-86.63-39.498c-0.122-1.436-0.175-2.907-0.175-4.378c0-19.048,9.77-35.804,24.564-45.539
		c8.596-5.655,18.874-8.946,29.921-8.946C151.619,575.779,175.062,597.787,177.339,625.801z"/>
	<path fill="#DD2C2C" d="M97.291,625.801c-0.122,1.472-0.175,2.96-0.175,4.465c0,8.229,1.838,16.038,5.096,23.023
		c-12.292-5.847-23.496-12.081-33.493-18.646c-0.122-1.436-0.175-2.907-0.175-4.378c0-19.048,9.77-35.804,24.564-45.539
		c8.596-5.655,18.874-8.946,29.921-8.946c4.938,0,9.734,0.665,14.287,1.908C115.535,583.571,99.183,602.637,97.291,625.801z"/>
	<path fill="#DDC55E" d="M276.261,624.716v75.723c-16.685-2.171-32.864-4.815-48.445-7.861V591.782
		C227.815,606.926,248.002,619.83,276.261,624.716z"/>
	<path fill="#E2BA14" d="M296.22,489.114c-5.533-30.866-23.251-57.515-47.99-74.761c12.431-25.335,36.452-43.962,65.148-48.988
		c5.077-0.893,10.295-1.349,15.617-1.349C328.995,364.018,291.089,421.463,296.22,489.114z"/>
	<path d="M792,555.347c0-30.649-18.761-60.08-54.312-85.354l-14.356-59.323c-1.218-5.027-5.271-8.869-10.355-9.817
		c-5.078-0.951-10.249,1.172-13.197,5.423l-21.841,31.482c-2.697-1.129-5.404-2.203-8.118-3.271
		c-23.07-37.76-64.696-62.134-110.47-62.134c-19.445,0-38.313,4.303-55.555,12.536c-2.055-12.037-5.781-23.954-11.324-35.413
		l-16.124-33.335c-3.157-6.53-11.011-9.261-17.536-6.104l-33.358,16.126c-0.255,0.124-0.505,0.26-0.759,0.384
		c-10.608-13.582-23.875-25.114-38.899-33.73l-32.128-18.418c-6.292-3.607-14.312-1.434-17.919,4.855l-18.443,32.138
		c-7.754,13.544-12.964,28.019-15.622,43.125c-23.593,6.401-44.141,21.005-58.011,41.569c-18.462-10.036-39.56-15.7-61.831-15.7
		c-14.033,0-27.839,2.236-41.037,6.651c-6.877,2.299-10.588,9.739-8.288,16.616c2.299,6.879,9.744,10.586,16.617,8.288
		c10.508-3.514,21.514-5.295,32.71-5.295c46.798,0,87.179,31.252,99.361,75.549c-2.67,1.804-5.188,3.862-7.519,6.191
		c-4.251,4.251-7.583,9.076-10.008,14.228c-15.962-3.518-42.518-4.213-66.152,19.424c-5.128,5.128-5.128,13.442,0,18.568
		c2.563,2.563,5.924,3.848,9.284,3.848s6.721-1.281,9.284-3.848c15.539-15.538,33.137-14.469,42.925-12.141
		c0.547,6.7,2.405,13.313,5.596,19.406c-30.003,7.402-49.921,23.846-49.927,43.905l0,0v15.608
		c-8.523,2.877-17.358,4.611-26.409,5.165c-7.876-28.789-34.484-49.907-65.247-49.907c-9.079,0-17.947,1.844-26.197,5.316
		c-11.697-17.05-18.064-37.369-18.064-58.244c0-30.876,13.676-59.867,37.517-79.542c5.594-4.616,6.386-12.893,1.77-18.485
		c-4.616-5.594-12.892-6.388-18.485-1.77c-29.909,24.682-47.063,61.057-47.063,99.797c0,26.117,7.949,51.548,22.553,72.915
		c-7.818,7.859-13.544,17.472-16.731,28.018c-17.037-14.34-32.067-33.24-32.067-55.303c0-12.486,4.853-25.046,14.426-37.326
		c4.458-5.721,3.436-13.972-2.285-18.43c-5.722-4.457-13.97-3.436-18.43,2.284C6.735,518.857,0.017,536.824,0,555.275
		c0,0.023-0.003,0.044-0.003,0.065c0,105.775,41.192,205.219,115.985,280.014C190.777,910.147,290.22,951.34,395.995,951.34
		c107.858,0,208.681-42.591,283.896-119.924c5.057-5.197,4.94-13.511-0.257-18.567c-5.197-5.056-13.511-4.94-18.567,0.257
		c-70.229,72.205-164.365,111.973-265.069,111.973c-180.915,0-331.881-130.619-363.591-302.5
		c8.208,8.008,17.927,15.714,29.115,23.048c24.025,15.741,54.237,29.543,89.795,41.011c22.843,7.374,47.737,13.709,73.978,18.827
		c46.778,9.158,97.013,14.377,149.295,15.51c6.801,0.151,14.003,0.229,21.411,0.229c11.309,0,22.672-0.196,33.783-0.583
		c0.048,0,0.097-0.001,0.145-0.003c8.95-0.318,17.159-0.715,25.078-1.206c14.902-0.9,30.035-2.19,44.979-3.837
		c26.517-2.93,52.243-6.988,76.467-12.07c75.567-15.832,135.392-40.664,173.012-71.809c3.659-3.032,7.073-6.123,10.267-9.238
		c-10.889,60.003-36.471,115.996-75.567,164.562c-4.546,5.649-3.653,13.916,1.994,18.462c2.427,1.954,5.337,2.904,8.225,2.904
		c3.838,0,7.642-1.676,10.237-4.897c56.243-69.867,87.258-157.806,87.366-247.669C791.989,555.661,792,555.505,792,555.347z
		 M765.737,555.347c0,5.83-1.07,11.664-3.162,17.476l-14.094-58.235C758.49,526.301,765.737,540.06,765.737,555.347z
		 M693.397,461.547l11.289-16.271l38.016,157.08c-0.014,0.012-0.026,0.026-0.04,0.038l-31.751-40.19
		c-4.498-5.689-12.757-6.661-18.445-2.163c-5.689,4.494-6.657,12.753-2.162,18.443l32.218,40.782
		c-31.087,22.093-77.116,40.952-132.387,54.244l32.121-181.153l45.364,57.414c4.493,5.689,12.752,6.661,18.443,2.162
		c5.689-4.493,6.657-12.752,2.162-18.443l-23.829-30.159l28.637-41.288C693.159,461.883,693.279,461.716,693.397,461.547z
		 M513.572,687.476c-0.334-5.756-1.637-11.426-3.852-16.755c8.047-2.363,15.422-6.71,21.517-12.807
		c9.591-9.589,14.872-22.34,14.872-35.901c0-6.63-1.271-13.064-3.682-19.032l47.067-76.283l-27.104,152.861
		C546.666,682.647,530.32,685.29,513.572,687.476z M412.544,490.696c4.631,4.632,7.181,10.785,7.181,17.332
		c0,6.548-2.551,12.702-7.181,17.332c-9.557,9.557-25.107,9.559-34.664,0c-9.557-9.558-9.557-25.108,0-34.664
		c4.778-4.778,11.054-7.168,17.333-7.168C401.49,483.528,407.766,485.918,412.544,490.696z M519.847,622.015
		c0,6.546-2.55,12.703-7.181,17.331c-4.632,4.628-10.785,7.181-17.331,7.181c-6.547,0-12.702-2.549-17.332-7.181
		c-4.63-4.631-7.181-10.785-7.181-17.331c0-6.548,2.551-12.701,7.181-17.333c4.778-4.778,11.055-7.168,17.332-7.168
		c6.276,0,12.553,2.39,17.331,7.168C517.296,609.312,519.847,615.465,519.847,622.015z M380.143,560.198
		c6.174,6.18,8.332,14.857,6.526,22.803c-3.643-11.903-14.621-22.042-30.489-29.045C364.435,551.65,373.666,553.722,380.143,560.198
		z M398.715,613.436c4.778-4.778,11.054-7.168,17.331-7.168s12.553,2.39,17.331,7.168c4.63,4.631,7.181,10.785,7.181,17.333
		c0,6.546-2.549,12.701-7.181,17.331c-4.631,4.63-10.784,7.181-17.331,7.181c-6.546,0-12.703-2.55-17.331-7.181
		c-4.63-4.632-7.181-10.785-7.181-17.331C391.534,624.221,394.085,618.065,398.715,613.436z M656.824,468.171l-9.446,13.622
		l-22.644-28.656c-3.205-4.056-8.496-5.854-13.508-4.593c-3.375,0.85-6.178,3-7.941,5.855l-0.026-0.018l-78.083,126.552
		c-8.047-5.852-17.437-9.041-26.95-9.578c1.075-5.351,1.304-10.913,0.593-16.516c-0.913-7.194-7.487-12.298-14.68-11.371
		c-7.195,0.914-12.286,7.486-11.371,14.68c0.965,7.594-1.58,15.047-6.983,20.45c-9.558,9.557-25.108,9.557-34.664,0
		c-4.631-4.632-7.181-10.785-7.181-17.332c0-6.546,2.55-12.702,7.181-17.331c6.983-6.984,17.407-9.097,26.563-5.386
		c6.721,2.726,14.378-0.516,17.104-7.235c2.726-6.721-0.514-14.378-7.234-17.104c-3.535-1.433-7.161-2.444-10.814-3.052
		c29.685-24.299,46.968-60.094,48.781-97.351c16.172-9.949,34.651-15.194,53.836-15.194
		C603.406,398.614,642.645,426.933,656.824,468.171z M458.421,339.395l10.408,21.516c21.399,44.249,9.479,96.98-26.521,128.098
		c-2.521-6.242-6.29-11.977-11.193-16.88c-0.185-0.185-0.376-0.354-0.562-0.535c0.998-5.788,1.513-11.686,1.513-17.617
		c0-29.39-12.38-55.923-32.174-74.721c9.925-12.381,22.542-22.455,36.997-29.45L458.421,339.395z M340.087,324.453l11.902-20.742
		l20.741,11.889c11.438,6.559,21.319,14.903,29.507,24.882c-8.774,6.732-16.676,14.53-23.523,23.225
		c-14.671-8.115-31.512-12.763-49.417-12.814C331.672,341.715,335.271,332.862,340.087,324.453z M265.364,410.904
		c14.168-21.049,37.701-33.755,63.628-33.755c42.353,0,76.809,34.465,76.809,76.826c0,1.471-0.056,2.935-0.138,4.395
		c-16.221-3.388-33.788,1.189-46.355,13.756c-5.399,5.397-9.313,11.726-11.769,18.469c-0.665-0.747-1.349-1.486-2.066-2.204
		c-10.54-10.541-25.023-15.732-39.424-14.737C298.831,448.634,284.439,427.012,265.364,410.904z M292.25,541.633
		c-9.558-9.561-9.558-25.112,0-34.672c2.488-2.487,5.368-4.354,8.633-5.572c9.005-3.423,19.217-1.234,26.023,5.572
		c9.558,9.56,9.558,25.111,0,34.67c-1.298,1.296-2.722,2.408-4.232,3.372c-6.781-0.885-13.914-1.359-21.327-1.359
		c-2.232,0-4.43,0.056-6.608,0.141C293.884,543.128,293.046,542.429,292.25,541.633z M301.35,569.904
		c37.472,0,60.402,14.17,60.402,21.886c0,3.07-4.077,7.387-10.389,10.995c-6.296,3.6-8.481,11.622-4.882,17.918
		c3.11,5.44,9.521,7.801,15.27,6.023v67.567c-42.057-1.502-82.575-5.75-120.807-12.656v-54.71
		c15.379,8.138,36.455,13.011,60.402,13.011c8.058,0,16.021-0.572,23.673-1.698c7.175-1.059,12.134-7.73,11.077-14.904
		c-1.058-7.175-7.72-12.133-14.904-11.078c-6.387,0.942-13.064,1.419-19.844,1.419c-37.472,0-60.403-14.169-60.403-21.885
		C240.944,584.074,263.878,569.904,301.35,569.904z M214.684,676.437c-12.176-2.666-23.981-5.605-35.346-8.798
		c5.715-8.635,9.428-18.53,10.754-28.89c8.354-0.523,16.571-1.821,24.594-3.93v41.617H214.684z M164.254,626.889
		c0.088,1.047,0.13,2.151,0.13,3.377c0,11.09-4.299,21.381-11.95,29.078c-27.476-9.305-51.175-20.037-70.65-31.981
		c0.894-12.836,7.677-24.519,18.539-31.668c6.748-4.438,14.6-6.784,22.707-6.784C144.415,588.911,162.521,605.582,164.254,626.889z
		 M388.015,694.905v-21.79c7.393,4.915,15.937,7.781,24.924,8.321c-0.779,4.395-0.985,8.884-0.582,13.362
		c-5.441,0.093-10.905,0.142-16.358,0.142C393.301,694.94,390.645,694.927,388.015,694.905z M453.4,693.197
		c-4.752,0.294-9.636,0.549-14.702,0.778c-1.158-7.552,1.268-15.373,6.904-21.013c9.562-9.551,25.121-9.551,34.676-0.005
		c4.765,4.765,7.257,11.062,7.188,17.516C476.109,691.597,464.694,692.514,453.4,693.197z"/>
	<path d="M547.82,422.777c1.576,5.628,6.802,9.62,12.655,9.62c6.567,0,12.2-5.028,13.024-11.522
		c1.372-10.799-10.894-18.459-20.053-12.688C548.625,411.228,546.281,417.28,547.82,422.777z"/>
</g>
</svg>
