<?xml version="1.0" encoding="utf-8"?>
<!-- Generator: Adobe Illustrator 16.0.0, SVG Export Plug-In . SVG Version: 6.00 Build 0)  -->
<!DOCTYPE svg PUBLIC "-//W3C//DTD SVG 1.1//EN" "http://www.w3.org/Graphics/SVG/1.1/DTD/svg11.dtd">
<svg version="1.1" id="Capa_1" xmlns="http://www.w3.org/2000/svg" xmlns:xlink="http://www.w3.org/1999/xlink" x="0px" y="0px"
	 width="1000px" height="1000px" viewBox="0 0 1000 1000" enable-background="new 0 0 1000 1000" xml:space="preserve">
<g>
	<path fill="#A5DC69" d="M268.17,355.19c-36.812,0-70.832-11.885-98.5-31.98c-0.057,0.146-0.09,0.232-0.09,0.232
		c-10.086,70.583,33.373,138.116,101.748,158.206c0,0,2.857-2.404,7.795-6.604c11.607-23.502,21.953-47.668,30.973-72.404
		l21.906-60.065l0.229-0.104C312.491,350.644,290.868,355.19,268.17,355.19z"/>
	<path fill="#46C373" d="M660.341,682.407H484.788l144.648-144.648L508.284,432.044L369.589,570.739l47.219-165.055l-84.803-63.112
		l-21.906,60.065c-36.102,98.99-93.415,188.887-167.922,263.395l-94.489,94.489c-16.744,16.744-16.744,43.893,0,60.639
		L194.44,967.912c16.744,16.744,43.893,16.744,60.639,0l52.342-52.342c87.059-87.059,200.318-143.09,322.342-159.472l0,0
		L660.341,682.407z"/>
	<path fill="#A5DC69" d="M884.199,626.7c47.104-17.654,80.639-63.074,80.639-116.342c0-45.688-24.682-85.59-61.422-107.166
		c26.314-38.547,41.709-85.141,41.709-135.336c0-132.739-107.605-240.346-240.347-240.346c-48.32,0-93.301,14.271-130.982,38.811
		c-19.494-28.258-52.08-46.789-89.008-46.789c-39.918,0-74.756,21.656-93.473,53.844c-30.656-33.102-74.469-53.844-123.145-53.844
		c-92.689,0-167.829,75.141-167.829,167.831c0,92.689,75.139,167.831,167.829,167.831c26.938,0,52.372-6.383,74.93-17.661
		c29.775,46.829,82.084,77.926,141.688,77.926c9.695,0,19.184-0.867,28.432-2.447c20.322,26.777,46.125,49.16,75.744,65.482
		c-5.248,16.26-8.115,33.588-8.115,51.594c0,60.271,31.787,113.096,79.494,142.693c-19.596,27.459-31.16,61.043-31.16,97.349
		c0,92.689,75.139,167.83,167.829,167.83c92.689,0,167.828-75.139,167.828-167.83C964.838,709.368,932.551,656.155,884.199,626.7z"
		/>
	<path d="M920.947,629.528c38.9-26.367,63.424-70.971,63.424-119.172c0-43.992-20.461-85.557-54.463-112.613
		c22.789-39.387,34.75-83.907,34.75-129.889c0-143.295-116.58-259.877-259.878-259.877c-44.555,0-87.93,11.301-126.484,32.822
		C554.319,14.984,520.517,0,484.788,0c-37.111,0-72.217,16.365-96.225,43.857C355.017,15.762,312.271,0,268.17,0
		C164.86,0,80.809,84.049,80.809,187.362c0,58.121,26.602,110.146,68.27,144.537c-2.551,35.12,6.324,70.293,25.527,100.147
		c17.66,27.453,43.037,48.824,72.674,61.607c-32,58.109-72.186,111.842-118.913,158.568l-94.49,94.489
		c-24.332,24.334-24.332,63.924,0,88.258l146.754,146.754C192.418,993.51,208.092,1000,224.762,1000
		c16.668,0,32.342-6.49,44.129-18.277l52.342-52.342c78.17-78.17,179.939-131.051,288.631-150.404
		c4.639,99.217,86.803,178.51,187.147,178.51c103.312,0,187.361-84.049,187.361-187.361
		C984.369,715.353,961.139,664.767,920.947,629.528z M188.44,356.886c24.207,11.432,51.232,17.838,79.73,17.838
		c10.965,0,21.754-0.967,32.344-2.811l-8.766,24.035c-7.787,21.35-16.656,42.346-26.529,62.889
		C222.686,441.542,193.352,401.729,188.44,356.886z M293.608,901.76l-52.342,52.342c-9.102,9.1-23.912,9.104-33.014,0
		l-103.76-103.76l98.608-98.609c7.627-7.628,7.627-19.995,0-27.624c-7.629-7.625-19.992-7.625-27.623,0l-98.608,98.61
		l-15.371-15.371c-9.102-9.102-9.102-23.912,0-33.014l94.491-94.489c75.996-76,135.631-169.543,172.458-270.514l14.387-39.447
		c14.781,17.217,32.365,31.406,51.857,42.102L350.81,565.366c-2.449,8.559,1.199,17.689,8.869,22.205
		c3.084,1.814,6.506,2.699,9.902,2.699c5.053,0,10.051-1.957,13.816-5.721l135.285-135.283c14.25,14.645,30.121,27.5,47.477,38.438
		c-3.219,13.871-4.846,28.066-4.846,42.377c0,14.77,1.703,29.244,4.973,43.203l-95.311,95.311
		c-5.584,5.586-7.256,13.986-4.234,21.285c3.023,7.297,10.145,12.057,18.045,12.057h95.287c10.785,0,19.531-8.746,19.531-19.531
		s-8.746-19.531-19.531-19.531h-48.135l49.006-49.006c12.391,24.822,30.316,46.799,52.859,64.236
		c-10.732,18.947-17.99,39.479-21.568,60.866c-61.834,9.973-121.721,30.055-177.018,58.963c-1.955-9.031-6.445-17.328-13.135-24.018
		l-23.818-23.818c-9.191-9.191-21.412-14.254-34.41-14.254s-25.219,5.062-34.41,14.254l-56.565,56.562
		c-7.627,7.627-7.627,19.994,0,27.623c7.627,7.625,19.99,7.627,27.623,0l56.565-56.562c2.447-2.447,5.303-2.812,6.789-2.812
		s4.342,0.367,6.789,2.812l23.818,23.818c3.744,3.742,3.744,9.834,0,13.578l-14.184,14.186c-0.902,0.902-1.691,1.877-2.381,2.896
		C347.749,852.641,319.468,875.9,293.608,901.76z M430.979,427.163c15.045,4.486,30.775,7.098,46.883,7.684l-68.75,68.75
		L430.979,427.163z M793.955,918.395c-79.263-1.604-143.874-66.416-145.222-145.682c-0.541-31.801,8.904-62.348,27.232-88.204
		c1.742-2.459,3.076-5.221,3.6-8.189c1.447-8.207-2.293-16.023-8.928-20.137c-31.076-19.281-53.291-48.471-63.666-82.156
		c-0.127-0.475-0.275-0.943-0.439-1.41c-4.033-13.58-6.154-27.873-6.154-42.531c0-15.408,2.381-30.648,7.076-45.297
		c2.883-8.992-0.795-18.846-9.064-23.404c-26.916-14.832-50.988-35.641-69.613-60.184c-3.729-4.914-9.512-7.723-15.557-7.723
		c-1.092,0-2.191,0.092-3.291,0.279c-8.424,1.439-16.883,2.168-25.141,2.168c-50.979,0-97.783-25.748-125.205-68.875
		c-5.371-8.449-16.258-11.465-25.217-6.99c-20.703,10.352-42.973,15.6-66.196,15.6c-81.771,0-148.299-66.528-148.299-148.299
		S186.399,39.062,268.17,39.062c40.506,0,79.571,16.807,107.497,46.18c1.303,1.324,2.678,2.605,3.908,3.998
		c23.865,27.002,37.039,61.51,37.148,97.665c0.033,10.613,8.375,19.691,18.986,19.98c11.035,0.301,20.078-8.557,20.078-19.523
		c0-42.135-14.045-82.538-39.783-115.395c16.68-20.547,41.963-32.904,68.783-32.904c29.1,0,56.363,14.336,72.932,38.35
		c6.012,8.711,17.865,11.055,26.734,5.275c38.395-25.006,83.457-37.369,129.643-35.453
		C831.43,52.104,925.084,149.45,925.592,266.881c0.193,44.559-12.838,87.518-37.635,124.274c-0.67,0.693-1.311,1.428-1.887,2.236
		c-41.693,58.656-108.014,94.229-177.54,95.27c-10.361,0.154-19.369,7.906-20.031,18.246c-0.73,11.404,8.301,20.824,19.486,20.824
		c0.074,0,0.15,0,0.225-0.002c76.62-0.867,149.878-37.178,199.206-97.93c23.699,19.729,37.893,49.303,37.893,80.559
		c0,43.412-27.311,82.814-67.963,98.051c-6.998,2.625-11.887,9.01-12.59,16.451c-0.701,7.441,2.9,14.629,9.283,18.518
		c44.629,27.188,71.27,74.57,71.27,126.748C945.307,852.914,877.117,920.076,793.955,918.395z"/>
	<path d="M704.78,141.023l0.625,0.002c0.049,0,0.1,0,0.148,0c10.717,0,19.447-8.65,19.527-19.387
		c0.08-10.785-8.6-19.596-19.387-19.676l-0.916-0.002c-10.785,0-19.531,8.746-19.531,19.531S693.995,141.023,704.78,141.023z"/>
	<path d="M769.58,158.803c38.262,22.789,62.031,64.576,62.031,109.053c0,10.785,8.746,19.531,19.531,19.531
		s19.531-8.746,19.531-19.531c0-58.17-31.076-112.816-81.104-142.616c-9.264-5.516-21.256-2.479-26.775,6.787
		C757.273,141.295,760.312,153.282,769.58,158.803z"/>
	<path d="M243.479,664.181c-5.137,0-10.176,2.09-13.809,5.725c-3.631,3.631-5.723,8.67-5.723,13.826
		c0,5.139,2.09,10.178,5.723,13.809c3.633,3.633,8.672,5.703,13.809,5.703c5.156,0,10.176-2.07,13.809-5.703
		c3.65-3.652,5.723-8.67,5.723-13.809c0-5.156-2.072-10.176-5.723-13.826C253.655,666.271,248.635,664.181,243.479,664.181z"/>
</g>
</svg>
