<?xml version="1.0" encoding="utf-8"?>
<!-- Generator: Adobe Illustrator 16.0.0, SVG Export Plug-In . SVG Version: 6.00 Build 0)  -->
<!DOCTYPE svg PUBLIC "-//W3C//DTD SVG 1.1//EN" "http://www.w3.org/Graphics/SVG/1.1/DTD/svg11.dtd">
<svg version="1.1" id="Layer_1" xmlns="http://www.w3.org/2000/svg" xmlns:xlink="http://www.w3.org/1999/xlink" x="0px" y="0px"
	 width="792px" height="1224px" viewBox="0 0 792 1224" enable-background="new 0 0 792 1224" xml:space="preserve">
<g>
	<path fill="#F75469" d="M276.1,385.376L276.1,385.376C84.268,385.298-23.881,606.309,94.426,757.314
		c14.975,19.114,31.264,37.533,48.868,55.135c165.351,165.352,402.736,214.763,611.142,148.236
		c27.61-8.814,32.267-45.842,7.603-61.069C635.452,821.471,539.883,697.903,498.094,551.64
		C469.884,452.901,378.786,385.416,276.1,385.376z"/>
	<path fill="#DD3551" d="M762.037,899.619c-126.586-78.146-222.155-201.713-263.944-347.977
		c-28.209-98.736-119.307-166.225-221.995-166.265l0,0c-9.397-0.005-18.589,0.542-27.568,1.564
		c85.892,21.77,96.249,121.191,121.382,209.16C415.91,757.093,622.701,813.602,762.037,899.619
		C770.468,904.821,786.7,914.842,762.037,899.619z"/>
	<g>
		<path fill="#2AB573" d="M93.984,425.802c-6.663-6.326-20.176-19.993-33.851-38.8c-39.656-54.54-13.285-131.986,51.204-151.69l0,0
			c-14.358,89.798,8.924,128.49,23.463,159.394"/>
		<path fill="#2AB573" d="M349.51,376.981c-50.313,20.05-55.558,75.943-55.558,75.943c-135.127-25.65-159.813,91.798-159.813,91.798
			c-72.315,0-103.354,49.245-116.463,86.093C2.703,495.687,105.827,360.118,260.271,360.16
			C291.457,360.182,321.637,366.075,349.51,376.981z"/>
	</g>
	<path d="M294.419,904.961c-52.189-27.467-100.001-62.743-142.11-104.85c-16.994-16.997-33.018-35.072-47.627-53.736
		c-16.309-20.816-28.487-43.66-36.202-67.896c-2.634-8.28-11.477-12.85-19.758-10.22c-8.277,2.634-12.854,11.48-10.219,19.758
		c8.853,27.821,22.786,53.981,41.409,77.753c15.388,19.656,32.26,38.691,50.148,56.585c44.349,44.348,94.716,81.507,149.704,110.445
		c2.336,1.229,4.845,1.814,7.311,1.814c5.654,0,11.118-3.058,13.935-8.407C305.059,918.518,302.106,909.006,294.419,904.961z"/>
	<path d="M768.445,885.053c-125.532-77.509-216.872-197.924-257.188-339.064c-17.643-61.756-58.359-113.379-114.648-145.357
		c-7.556-4.289-17.157-1.646-21.449,5.908c-4.291,7.555-1.646,17.156,5.905,21.447c49.083,27.884,84.576,72.859,99.938,126.645
		c42.476,148.701,138.688,275.554,270.917,357.195c6.184,3.814,9.353,10.379,8.475,17.562c-0.889,7.255-5.596,12.925-12.591,15.16
		c-58.484,18.666-119.037,27.949-179.492,27.945c-78.331-0.001-156.48-15.591-229.601-46.545c-7.992-3.385-17.23,0.353-20.616,8.352
		c-3.388,7.998,0.353,17.23,8.352,20.618c77.037,32.614,159.335,49.036,241.864,49.034c63.663-0.001,127.477-9.779,189.061-29.437
		c18.742-5.99,31.863-21.82,34.247-41.309C793.997,913.786,785.113,895.334,768.445,885.053z"/>
	<path d="M354.83,392.06c5.998-2.391,9.926-8.205,9.907-14.66s-3.984-12.247-9.997-14.599
		c-30.302-11.855-62.251-17.879-94.961-17.902c-0.005,0-0.006,0-0.011,0c-8.683,0-15.724,7.034-15.73,15.72
		c-0.006,8.687,7.032,15.733,15.719,15.739c17.788,0.012,35.318,2.041,52.402,6.048c-18.431,17.215-27.103,38.631-31.103,53.13
		c-67.741-8.28-107.861,18.639-129.986,43.73c-16.264,18.445-25.019,38.295-29.301,50.616
		c-35.526,2.576-65.375,16.868-87.793,41.584c5.026-33.389,17.489-65.773,36.751-94.585c30.905-46.228,77.019-79.278,129.839-93.065
		c8.406-2.193,13.439-10.786,11.246-19.192c-2.197-8.406-10.791-13.441-19.192-11.248c-17.924,4.679-35.157,11.31-51.463,19.68
		c-12.944-27.651-26.148-63.804-14.794-134.797c0.855-5.358-1.109-10.782-5.204-14.348c-4.092-3.564-9.733-4.767-14.925-3.179
		c-35.827,10.951-63.198,37.624-75.091,73.183c-11.812,35.311-6.067,72.781,15.761,102.801
		c8.612,11.841,17.166,21.751,24.195,29.271c-9.655,10.314-18.539,21.472-26.52,33.408C10.127,510.927-5.157,572.584,1.541,633.016
		c0.808,7.284,6.537,13.045,13.817,13.893c0.613,0.071,1.222,0.105,1.825,0.105c6.585,0,12.561-4.133,14.813-10.459
		c12.276-34.504,39.871-75.636,101.643-75.636c7.396,0,13.806-5.212,15.382-12.437c0.909-4.176,23.622-102.011,141.499-79.637
		c4.325,0.821,8.802-0.246,12.335-2.876c3.531-2.63,5.804-6.659,6.253-11.038C309.302,453.03,314.371,408.185,354.83,392.06z
		 M60.977,303.897c5.756-17.21,16.507-31.547,30.741-41.543c-5.374,64.042,9.502,100.024,22.271,126.849
		c-6.915,4.716-13.597,9.789-20.037,15.176c-6.27-6.715-13.898-15.564-21.602-26.159C56.58,356.528,52.433,329.438,60.977,303.897z"
		/>
</g>
</svg>
